<svg width="250" height="73" viewBox="0 0 250 73" fill="none" xmlns="http://www.w3.org/2000/svg">
<path d="M95.2998 33.4L78.1998 47.2C77.6998 47.6 77.2998 48.1 76.9998 48.7C76.6998 49.3 76.4998 49.9 76.4998 50.6C76.3998 52 76.8998 53.2 77.9998 54.2L96.8998 72.4H110.4L88.3998 51.2L110.4 33.4H95.2998Z" fill="#F29100"/>
<path d="M74.1002 17H64.7002V72.4H74.1002V17Z" fill="#F29100"/>
<path d="M129.4 17H120V25.5H129.4V17Z" fill="#E84E1B"/>
<path d="M129.4 33.4H120V72.3H129.4V33.4Z" fill="#E84E1B"/>
<path d="M153 20.7H143.6V33.4L136.4 42.9L143.6 42.8V72.4H153V42.8H169.4V33.4H153V20.7Z" fill="#E5332A"/>
<path d="M185.1 17H175.7V72.4H185.1V17Z" fill="#BF1823"/>
<path d="M51.7 20.7C50 19.4 48.2 18.4 46.3 17.8C44.3 17.2 42.5 16.9 40.8 16.9H16.8C13.7 16.9 11.1 17.5 9 18.6C6.9 19.7 5.1 21.1 3.8 22.8C2.5 24.5 1.5 26.3 0.899998 28.2C0.299998 30.2 0 32 0 33.7V55.6C0 58.7 0.599997 61.3 1.7 63.4C2.8 65.5 4.2 67.3 5.9 68.6C7.6 69.9 9.4 70.9 11.3 71.5C13.3 72.1 15.1 72.4 16.8 72.4H20.2L29.7 62.9H16.9C14.9 62.9 13.1 62.3 11.7 61C10.2 59.7 9.5 57.9 9.5 55.7V33.8C9.5 31.8 10.1 30 11.4 28.6C12.7 27.1 14.5 26.4 16.8 26.4H40.8C42.8 26.4 44.5 27 45.9 28.3C47.4 29.6 48.1 31.4 48.1 33.6C48.1 35.6 47.5 37.4 46.2 38.8C44.9 40.3 43.1 41 40.8 41H27.9L18.4 50.5H40.8C43.9 50.5 46.5 49.9 48.6 48.8C50.7 47.7 52.5 46.3 53.8 44.6C55.1 42.9 56.1 41.1 56.7 39.2C57.3 37.2 57.6 35.4 57.6 33.7C57.6 30.6 57 28 55.9 25.9C54.8 23.8 53.4 22 51.7 20.7Z" fill="#F8AF00"/>
<path d="M247.5 25.9C246.4 23.8 245 22 243.3 20.7C241.6 19.4 239.8 18.4 237.9 17.8C235.9 17.2 234.1 16.9 232.4 16.9H229L219.5 26.4H232.3C234.3 26.4 236.1 27 237.5 28.3C239 29.6 239.7 31.4 239.7 33.6V55.4C239.7 57.4 239.1 59.2 237.8 60.6C236.5 62.1 234.7 62.8 232.4 62.8H208.4C206.4 62.8 204.7 62.2 203.3 60.9C201.8 59.6 201.1 57.8 201.1 55.6C201.1 53.6 201.7 51.8 203 50.4C204.3 48.9 206.1 48.2 208.4 48.2H221.3L230.8 38.7H208.4C205.3 38.7 202.7 39.3 200.6 40.4C198.5 41.5 196.7 42.9 195.4 44.6C194.1 46.3 193.1 48.1 192.5 50C191.9 52 191.6 53.8 191.6 55.5C191.6 58.6 192.2 61.2 193.3 63.3C194.4 65.4 195.8 67.2 197.5 68.5C199.2 69.8 201 70.8 202.9 71.4C204.9 72 206.7 72.3 208.4 72.3H232.4C235.5 72.3 238.1 71.7 240.2 70.6C242.3 69.5 244.1 68.1 245.4 66.4C246.7 64.7 247.7 62.9 248.3 61C248.9 59 249.2 57.2 249.2 55.5V33.7C249.2 30.6 248.6 28 247.5 25.9Z" fill="#BF1823"/>
<path d="M195.6 0H186.2V8.5H195.6V0Z" fill="#5A9095"/>
<path d="M15.7002 50.4V41H25.1002L15.7002 50.4Z" fill="#5A9095"/>
<path d="M224.3 48.3H233.7V38.9L224.3 48.3Z" fill="#5A9095"/>
</svg>
